<svg width="64" height="64" viewBox="0 0 64 64" fill="none" xmlns="http://www.w3.org/2000/svg">
<circle cx="32" cy="32" r="32" fill="url(#paint0_linear_5243_21888)"/>
<path d="M32 62C48.5685 62 62 48.5685 62 32C62 15.4315 48.5685 2 32 2C15.4315 2 2 15.4315 2 32C2 48.5685 15.4315 62 32 62Z" fill="#1A2037"/>
<path d="M14.5396 26.165L26.1639 14.5407L37.8129 26.1897L26.1886 37.814C22.9674 41.0352 17.7525 41.0352 14.5396 37.814C11.3266 34.5928 11.3266 29.3779 14.5396 26.165V26.165Z" fill="url(#paint1_radial_5243_21888)"/>
<path d="M26.1648 26.1897C29.3859 29.4109 34.6008 29.4109 37.8137 26.1897C41.0267 22.9685 41.0349 17.7537 37.8137 14.5407C34.5926 11.3278 29.3777 11.3278 26.1648 14.5407C22.9518 17.7537 22.9436 22.9768 26.1648 26.1897Z" fill="#00BFFC"/>
<path d="M37.8128 26.1897L26.1885 37.814L37.8375 49.463L49.4618 37.8387C52.6829 34.6175 52.6829 29.4027 49.4618 26.1897C46.2406 22.9768 41.0257 22.9768 37.8128 26.1897Z" fill="url(#paint2_radial_5243_21888)"/>
<path d="M37.838 37.8139C41.0592 41.0351 41.0592 46.25 37.838 49.4629C34.6168 52.6759 29.402 52.6841 26.189 49.4629C22.9761 46.2417 22.9761 41.0269 26.189 37.8139C29.4102 34.5928 34.6251 34.5928 37.838 37.8139Z" fill="#976CF3"/>
<defs>
<linearGradient id="paint0_linear_5243_21888" x1="57" y1="3" x2="-2" y2="63" gradientUnits="userSpaceOnUse">
<stop stop-color="#00BFFC"/>
<stop offset="1" stop-color="#976CF3"/>
</linearGradient>
<radialGradient id="paint1_radial_5243_21888" cx="0" cy="0" r="1" gradientUnits="userSpaceOnUse" gradientTransform="translate(31.8863 20.1709) rotate(135) scale(24.5914)">
<stop stop-color="#00BFFC"/>
<stop offset="1" stop-color="#00BFFC" stop-opacity="0"/>
</radialGradient>
<radialGradient id="paint2_radial_5243_21888" cx="0" cy="0" r="1" gradientUnits="userSpaceOnUse" gradientTransform="translate(31.8124 43.5462) rotate(-45) scale(24.5914)">
<stop stop-color="#976CF3"/>
<stop offset="1" stop-color="#976CF3" stop-opacity="0"/>
</radialGradient>
</defs>
</svg>
